<svg aria-hidden="true" style="position: absolute; width: 0; height: 0; overflow: hidden;" version="1.1" xmlns="http://www.w3.org/2000/svg" xmlns:xlink="http://www.w3.org/1999/xlink">
<defs>
<symbol id="icon-Call" viewBox="0 0 32 32">
<path stroke-linejoin="miter" stroke-linecap="butt" stroke-miterlimit="10" stroke-width="1.8824" d="M30.119 24.541c-1.15-1.158-3.934-2.849-5.285-3.53-1.759-0.886-1.904-0.959-3.287 0.069-0.922 0.686-1.536 1.298-2.615 1.068s-3.425-1.528-5.479-3.576c-2.054-2.047-3.427-4.461-3.658-5.537s0.392-1.682 1.071-2.606c0.957-1.303 0.885-1.52 0.067-3.28-0.638-1.368-2.378-4.127-3.54-5.27-1.244-1.229-1.244-1.011-2.045-0.678-0.652 0.274-1.278 0.608-1.87 0.997-1.158 0.77-1.801 1.409-2.251 2.369s-0.652 3.213 1.67 7.431c2.322 4.218 3.951 6.374 7.323 9.736s5.964 5.17 9.754 7.295c4.689 2.626 6.487 2.114 7.451 1.665s1.606-1.086 2.377-2.244c0.39-0.591 0.724-1.216 0.999-1.868 0.334-0.799 0.551-0.799-0.68-2.042z"></path>
</symbol>
<symbol id="icon-right-arrow" viewBox="0 0 18 32">
<path stroke-linejoin="round" stroke-linecap="round" stroke-miterlimit="4" stroke-width="4" d="M3.542 29.906l11.886-13.371-11.886-13.371"></path>
</symbol>
<symbol id="icon-instagram" viewBox="0 0 32 32">
<path d="M16 8.191c-4.222 0-7.587 3.431-7.587 7.587 0 4.222 3.365 7.587 7.587 7.587 4.156 0 7.587-3.365 7.587-7.587 0-4.156-3.431-7.587-7.587-7.587zM16 20.726c-2.705 0-4.948-2.177-4.948-4.948 0-2.705 2.177-4.882 4.948-4.882 2.705 0 4.882 2.177 4.882 4.882 0 2.771-2.177 4.948-4.882 4.948zM25.632 7.927c0-0.99-0.792-1.781-1.781-1.781s-1.781 0.792-1.781 1.781 0.792 1.781 1.781 1.781c0.99 0 1.781-0.792 1.781-1.781zM30.646 9.708c-0.132-2.375-0.66-4.486-2.375-6.201s-3.826-2.243-6.201-2.375c-2.441-0.132-9.764-0.132-12.205 0-2.375 0.132-4.42 0.66-6.201 2.375-1.715 1.715-2.243 3.826-2.375 6.201-0.132 2.441-0.132 9.764 0 12.205 0.132 2.375 0.66 4.42 2.375 6.201 1.781 1.715 3.826 2.243 6.201 2.375 2.441 0.132 9.764 0.132 12.205 0 2.375-0.132 4.486-0.66 6.201-2.375 1.715-1.781 2.243-3.826 2.375-6.201 0.132-2.441 0.132-9.764 0-12.205zM27.479 24.486c-0.462 1.319-1.517 2.309-2.771 2.837-1.979 0.792-6.597 0.594-8.708 0.594-2.177 0-6.795 0.198-8.708-0.594-1.319-0.528-2.309-1.517-2.837-2.837-0.792-1.913-0.594-6.531-0.594-8.708 0-2.111-0.198-6.729 0.594-8.708 0.528-1.253 1.517-2.243 2.837-2.771 1.913-0.792 6.531-0.594 8.708-0.594 2.111 0 6.729-0.198 8.708 0.594 1.253 0.462 2.243 1.517 2.771 2.771 0.792 1.979 0.594 6.597 0.594 8.708 0 2.177 0.198 6.795-0.594 8.708z"></path>
</symbol>
<symbol id="icon-fesebook" viewBox="0 0 19 32">
<path d="M16.309 18.316l0.829-5.447h-5.27v-3.553c0-1.539 0.711-2.961 3.079-2.961h2.428v-4.678c0 0-2.191-0.414-4.263-0.414-4.322 0-7.164 2.664-7.164 7.401v4.204h-4.855v5.447h4.855v13.263h5.921v-13.263h4.441z"></path>
</symbol>
<symbol id="icon-linkedin" viewBox="0 0 32 32">
<path d="M7.794 31.059v-19.787h-6.154v19.787h6.154zM4.684 8.625c1.985 0 3.574-1.654 3.574-3.64 0-1.919-1.588-3.507-3.574-3.507-1.919 0-3.507 1.588-3.507 3.507 0 1.985 1.588 3.64 3.507 3.64zM30.757 31.059h0.066v-10.853c0-5.294-1.191-9.397-7.412-9.397-2.978 0-4.963 1.654-5.824 3.176h-0.066v-2.713h-5.89v19.787h6.154v-9.794c0-2.581 0.463-5.029 3.64-5.029s3.243 2.912 3.243 5.228v9.596h6.088z"></path>
</symbol>
<symbol id="icon-twitter" viewBox="0 0 38 32">
<path d="M33.273 8.188c1.406-1.055 2.672-2.32 3.656-3.797-1.266 0.563-2.742 0.984-4.219 1.125 1.547-0.914 2.672-2.32 3.234-4.078-1.406 0.844-3.024 1.477-4.641 1.828-1.406-1.477-3.305-2.32-5.414-2.32-4.078 0-7.383 3.305-7.383 7.383 0 0.563 0.070 1.125 0.211 1.688-6.117-0.352-11.602-3.305-15.258-7.734-0.633 1.055-0.984 2.32-0.984 3.727 0 2.531 1.266 4.781 3.305 6.117-1.195-0.070-2.391-0.352-3.375-0.914v0.070c0 3.586 2.531 6.539 5.906 7.242-0.563 0.141-1.266 0.281-1.898 0.281-0.492 0-0.914-0.070-1.406-0.141 0.914 2.953 3.656 5.063 6.891 5.133-2.531 1.969-5.695 3.164-9.141 3.164-0.633 0-1.195-0.070-1.758-0.141 3.234 2.109 7.102 3.305 11.32 3.305 13.57 0 20.953-11.18 20.953-20.953 0-0.352 0-0.633 0-0.984z"></path>
</symbol>
</defs>
</svg>
